<?xml version="1.0" encoding="UTF-8" standalone="no"?>
<svg
   width="900"
   height="900"
   viewBox="0 0 900 900"
   version="1.1"
   xml:space="preserve"
   id="SVGRoot"
   xmlns="http://www.w3.org/2000/svg"
   xmlns:svg="http://www.w3.org/2000/svg"><defs
   id="defs126" />

<style
   type="text/css"
   id="style1">
g.prefab path {
  vector-effect:non-scaling-stroke;
  -inkscape-stroke:hairline;
  fill: none;
  fill-opacity: 1;
  stroke-opacity: 1;
  stroke: #00349c;
}
</style>

<path
   style="fill:#ffb380;stroke:#000000;stroke-width:4.31034;stroke-dasharray:none"
   d="m 389.9138,468.3576 -9.51148,-16.63346 9.51148,-16.63346 9.51149,-16.63346 19.54023,0.01 19.54023,0.01 9.50603,16.63293 9.50604,16.63293 -9.50604,16.62401 -9.50603,16.62402 h -19.54023 -19.54023 z"
   id="path128" /><path
   style="fill:#ffb380;stroke:#000000;stroke-width:4.31034;stroke-dasharray:none"
   d="m 396.27361,340.54471 c -2.1278,-3.65017 -6.57158,-11.33611 -9.87509,-17.07988 l -6.00637,-10.44322 9.65638,-16.56827 9.65638,-16.56828 19.02988,-0.31477 19.02987,-0.31477 6.25306,10.65959 c 3.43918,5.86278 7.84731,13.50443 9.79584,16.98144 l 3.54279,6.32184 -9.57012,16.66667 -9.57012,16.66666 -19.03689,0.31483 -19.0369,0.31483 z"
   id="path129" /><path
   style="fill:#ffb380;stroke:#000000;stroke-width:4.31034;stroke-dasharray:none"
   d="m 270.36468,399.65448 c -5.19483,-9.04061 -9.44514,-16.83506 -9.44514,-17.321 0,-0.48594 4.18382,-8.10109 9.29739,-16.92257 l 9.29738,-16.03903 19.60253,0.31406 19.60253,0.31406 9.01559,15.51724 c 4.95857,8.53448 9.02258,16.10469 9.03112,16.82267 0.009,0.71799 -4.19706,8.60592 -9.34577,17.52874 l -9.3613,16.2233 h -19.1246 -19.1246 z"
   id="path130" /><path
   style="fill:#ffb380;stroke:#000000;stroke-width:4.31034;stroke-dasharray:none"
   d="m 270.4023,538.66419 c -5.21552,-9.06006 -9.48276,-16.86587 -9.48276,-17.34625 0,-0.48038 4.26724,-8.30905 9.48276,-17.39704 l 9.48276,-16.52362 18.9821,-0.0205 18.9821,-0.0205 9.81321,16.9677 9.81322,16.96769 -9.79335,16.94035 -9.79336,16.94035 -19.00196,-0.0177 -19.00196,-0.0177 z"
   id="path131" /><path
   style="fill:#ffb380;stroke:#000000;stroke-width:4.31034;stroke-dasharray:none"
   d="m 399.16369,622.7282 c -0.63949,-0.80511 -5.11176,-8.36847 -9.93839,-16.80748 l -8.77569,-15.34364 9.48784,-16.53243 9.48784,-16.53243 h 19.54023 19.54023 l 9.49777,16.54965 9.49778,16.54966 -9.55412,16.47584 -9.55412,16.47585 -19.03334,0.31441 c -14.34863,0.23702 -19.31951,-0.0459 -20.19603,-1.14943 z"
   id="path132" /><path
   style="fill:#ffb380;stroke:#000000;stroke-width:4.31034;stroke-dasharray:none"
   d="m 510.19326,538.26911 -9.82083,-16.90331 9.83697,-17.00474 9.83697,-17.00474 18.9998,0.004 18.99981,0.004 8.62069,15.09971 c 4.74138,8.30484 9.06706,16.01549 9.61262,17.13478 0.74678,1.5321 -1.38383,6.17455 -8.62069,18.78386 l -9.61262,16.74879 -19.01594,0.0205 -19.01594,0.0205 z"
   id="path133" /><path
   style="fill:#ffb380;stroke:#000000;stroke-width:4.31034;stroke-dasharray:none"
   d="m 510.11701,399.25783 -9.71276,-16.83412 9.35111,-16.21186 9.35111,-16.21185 19.62434,-0.31393 19.62435,-0.31393 9.32817,16.0556 c 5.13049,8.83058 9.32816,16.40596 9.32816,16.83417 0,0.42822 -4.24478,8.21516 -9.43284,17.30431 l -9.43285,16.52573 h -19.15802 -19.15801 z"
   id="path134" /><path
   style="fill:#800000;stroke:#000000;stroke-width:4.31034;stroke-dasharray:none"
   d="m 330.10719,572.89198 -9.54798,-16.69678 9.54798,-16.58565 9.54798,-16.58565 19.54023,0.0252 19.54023,0.0252 9.28105,16.31251 9.28105,16.31251 -9.82147,16.97796 -9.82148,16.97795 -18.9998,-0.0332 -18.99981,-0.0332 z"
   id="path135" /><path
   style="fill:#800000;stroke:#000000;stroke-width:4.31034;stroke-dasharray:none"
   d="m 330.50745,503.53061 -9.93585,-17.15904 9.54179,-16.73558 9.54178,-16.73558 19.11246,-0.0134 19.11246,-0.0134 9.71925,17.05513 9.71925,17.05513 -9.7236,16.85292 -9.72361,16.85292 h -18.71404 -18.71405 z"
   id="path136" /><path
   style="fill:#800000;stroke:#000000;stroke-width:4.31034;stroke-dasharray:none"
   d="m 390.58918,538.16572 -9.69164,-17.00669 9.73289,-16.92832 9.73289,-16.92833 18.91172,0.31433 18.91173,0.31432 9.61166,16.62792 9.61167,16.62792 -3.56967,6.36059 c -1.96331,3.49832 -6.37627,11.14507 -9.80658,16.99277 l -6.23692,10.63218 h -18.75805 -18.75805 z"
   id="path137" /><path
   style="fill:#800000;stroke:#000000;stroke-width:4.31034;stroke-dasharray:none"
   d="m 450.52892,572.70115 -9.78274,-16.95402 9.29037,-16.09196 9.29036,-16.09195 19.47448,-0.26765 19.47447,-0.26765 9.53542,16.58664 9.53542,16.58664 -9.53542,16.6838 -9.53542,16.68381 -18.9821,0.0432 -18.9821,0.0432 z"
   id="path138" /><path
   style="fill:#800000;stroke:#000000;stroke-width:4.31034;stroke-dasharray:none"
   d="m 450.70784,365.60736 c -5.13069,-8.83092 -9.32853,-16.66519 -9.32853,-17.4095 0,-0.74431 4.25163,-8.80186 9.44806,-17.90567 l 9.44806,-16.55238 18.92286,0.314 18.92287,0.31401 9.5778,16.51229 9.5778,16.5123 -9.64109,16.82103 -9.64109,16.82104 -18.97911,0.31455 -18.97911,0.31454 z"
   id="path144" /><path
   style="fill:#800000;stroke:#000000;stroke-width:4.31034;stroke-dasharray:none"
   d="m 398.46088,413.53334 c -0.89555,-1.43759 -5.32665,-9.00689 -9.8469,-16.82066 l -8.21863,-14.20686 9.51497,-16.53521 9.51497,-16.53521 19.54023,0.0283 19.54023,0.0283 9.38671,16.61687 9.38672,16.61687 -9.45713,16.39574 -9.45712,16.39574 -19.13789,0.31495 c -18.82386,0.30978 -19.16461,0.27205 -20.76616,-2.29885 z"
   id="path145" /><path
   style="fill:#800000;stroke:#000000;stroke-width:4.31034;stroke-dasharray:none"
   d="m 338.55501,379.5977 c -0.42427,-1.10632 -4.63367,-8.80532 -9.35424,-17.10889 l -8.58284,-15.0974 9.57496,-16.5118 9.57497,-16.51179 18.91879,-0.31389 18.91879,-0.31389 9.78705,17.01397 9.78704,17.01397 -9.77704,16.92061 -9.77703,16.92061 h -19.14953 c -17.17749,0 -19.22896,-0.20715 -19.92092,-2.0115 z"
   id="path146" /><path
   style="fill:#800000;stroke:#000000;stroke-width:4.31034;stroke-dasharray:none"
   d="m 330.14362,433.96021 -9.51156,-16.57354 9.48586,-16.73931 9.48586,-16.73931 h 19.18334 19.18333 l 8.20688,14.23793 c 4.51378,7.83086 8.87198,15.14751 9.68488,16.25922 1.2809,1.75174 0.18041,4.29829 -8.25205,19.0954 l -9.73007,17.07411 -19.11246,-0.0205 -19.11246,-0.0205 z"
   id="path147" /><path
   style="fill:#800000;stroke:#000000;stroke-width:4.31034;stroke-dasharray:none"
   d="m 270.20618,468.84426 c -5.10765,-8.91726 -9.28664,-16.61677 -9.28664,-17.11003 0,-0.49325 4.21259,-8.1973 9.3613,-17.12012 l 9.3613,-16.22331 h 19.14045 19.14044 l 9.56598,16.63453 9.56597,16.63452 -9.45058,16.69881 -9.45059,16.69881 h -19.33049 -19.33049 z"
   id="path148" /><path
   style="fill:#ff2a2a;fill-opacity:1;stroke:#000000;stroke-width:4.31034;stroke-dasharray:none"
   d="m 514.82406,476.72414 c -2.64967,-4.58334 -6.81042,-11.72549 -9.24611,-15.87146 -2.43569,-4.14597 -4.40253,-8.2839 -4.37075,-9.1954 0.0318,-0.9115 4.10852,-8.64004 9.05942,-17.17452 l 9.00164,-15.51724 19.4951,-0.31372 19.49511,-0.31373 9.37651,16.24967 c 5.15708,8.93732 9.37651,16.6487 9.37651,17.1364 0,0.4877 -4.21258,8.18721 -9.3613,17.11003 l -9.36129,16.2233 h -19.32364 -19.32363 z"
   id="path151" /><path
   style="fill:#d03100;fill-opacity:1;stroke:#000000;stroke-width:4.31034;stroke-dasharray:none"
   d="m 450.53815,433.84343 c -8.13404,-14.37252 -9.29588,-17.08676 -8.24122,-19.25287 0.67526,-1.38688 4.81377,-8.72849 9.19669,-16.3147 l 7.96894,-13.7931 19.40665,-0.26978 19.40665,-0.26979 9.08355,15.97348 c 4.99595,8.78541 9.12115,16.34299 9.16712,16.79463 0.046,0.45163 -4.04162,8.2381 -9.08354,17.30326 l -9.16713,16.4821 -19.13438,0.039 -19.13438,0.039 z"
   id="path152" /><path
   style="fill:#d03100;fill-opacity:1;stroke:#000000;stroke-width:4.31034;stroke-dasharray:none"
   d="m 450.86207,504.20024 c -5.21552,-9.06362 -9.48276,-16.91419 -9.48276,-17.4457 0,-0.53152 4.19125,-8.37218 9.3139,-17.42369 l 9.31389,-16.45729 h 19.20885 19.20885 l 2.02956,4.25603 c 1.11625,2.34081 5.3616,9.90366 9.43411,16.80633 l 7.40457,12.55031 -9.90265,17.10171 -9.90265,17.10172 -18.57145,-0.005 -18.57146,-0.005 z"
   id="path153" /></svg>
