<?xml version="1.0" encoding="UTF-8" standalone="no"?>
<svg
   width="900"
   height="900"
   viewBox="0 0 900 900"
   version="1.1"
   xml:space="preserve"
   id="SVGRoot"
   xmlns="http://www.w3.org/2000/svg"
   xmlns:svg="http://www.w3.org/2000/svg"><defs
   id="defs2" />

<style
   type="text/css"
   id="style1">
g.prefab path {
  vector-effect:non-scaling-stroke;
  -inkscape-stroke:hairline;
  fill: none;
  fill-opacity: 1;
  stroke-opacity: 1;
  stroke: #00349c;
}
</style>

<path
   style="fill:#d03100;stroke:#000000;stroke-width:4.31034"
   d="m 373.5462,512.35632 c -12.26708,-15.38905 -20.48335,-35.32875 -21.55004,-52.29885 l -0.59606,-9.48276 h 48.14322 48.14322 l -33.89344,33.90805 c -18.64139,18.64942 -34.24065,33.90804 -34.66503,33.90804 -0.42438,0 -2.93622,-2.71551 -5.58187,-6.03448 z"
   id="path3" /><path
   style="fill:#d03100;stroke:#000000;stroke-width:4.31034"
   d="m 440.15692,548.22689 c -18.16534,-1.62008 -40.71881,-11.23539 -54.13095,-23.07785 l -4.99149,-4.4073 34.79388,-34.22145 34.79389,-34.22144 -0.0238,48.56322 c -0.0131,26.70977 -0.15308,48.4911 -0.31112,48.40295 -0.15805,-0.0882 -4.71675,-0.55531 -10.13044,-1.03813 z"
   id="path4" /><path
   style="fill:#d03100;stroke:#000000;stroke-width:4.31034"
   d="M 452.87356,501.60519 V 454.6027 l 33.04598,33.09483 33.04598,33.09483 -5.17242,4.47435 c -13.53182,11.70556 -36.09067,21.46316 -52.48839,22.70332 l -8.43115,0.63764 z"
   id="path5" /><path
   style="fill:#d03100;stroke:#000000;stroke-width:4.31034"
   d="m 491.29824,489.3132 c -15.76001,-15.99269 -30.69919,-31.25131 -33.19818,-33.90805 l -4.54362,-4.83044 h 47.52173 47.52173 l -0.59606,9.48276 c -0.72836,11.58764 -5.98281,28.0956 -12.39018,38.92638 -4.99312,8.44019 -13.32513,19.40695 -14.74445,19.40695 -0.50403,0 -13.81097,-13.08492 -29.57097,-29.0776 z"
   id="path6" /><path
   style="fill:#d03100;stroke:#000000;stroke-width:4.31034"
   d="m 487.12276,414.65517 33.66956,-33.62069 4.47437,5.17242 c 11.9537,13.81861 21.57187,36.30666 22.7252,53.13331 l 0.61246,8.93565 h -47.57558 -47.57558 z"
   id="path7" /><path
   style="fill:#d03100;stroke:#000000;stroke-width:4.31034"
   d="m 452.87356,397.57568 v -46.18335 l 8.43115,0.63764 c 16.35699,1.23708 39.42933,11.21236 52.66932,22.77147 l 4.99149,4.35779 -31.03449,31.18216 c -17.06896,17.15019 -31.93965,31.68514 -33.04597,32.29991 -1.90088,1.05628 -2.0115,-1.42194 -2.0115,-45.06562 z"
   id="path8" /><path
   style="fill:#d03100;stroke:#000000;stroke-width:4.31034"
   d="m 414.93522,413.14687 -33.90074,-33.97957 4.02299,-3.50784 c 16.03736,-13.98376 37.24399,-22.64676 59.48276,-24.29897 l 6.03448,-0.44832 v 48.10713 c 0,26.45893 -0.39122,48.10714 -0.86937,48.10714 -0.47816,0 -16.12471,-15.29081 -34.77012,-33.97957 z"
   id="path9" /><path
   style="fill:#d03100;stroke:#000000;stroke-width:4.31034"
   d="m 352.00811,439.34021 c 1.15333,-16.82665 10.7715,-39.3147 22.7252,-53.13331 l 4.47437,-5.17242 33.66956,33.62069 33.66957,33.62069 h -47.57558 -47.57558 z"
   id="path10" /><path
   style="fill:#d07300;fill-opacity:1;stroke:#000000;stroke-width:4.31034"
   d="m 551.29918,446.83908 c -0.38119,-1.42241 -0.70014,-4.70175 -0.70877,-7.2874 -0.0443,-13.27725 -10.9108,-39.82057 -21.91561,-53.53283 l -5.76813,-7.18722 34.19674,-34.21099 34.19674,-34.21099 2.73805,2.5538 c 4.36968,4.07561 17.84834,21.3717 23.48778,30.14 17.48188,27.1811 28.97977,62.23735 30.44222,92.81609 l 0.64591,13.50575 h -48.31092 -48.31093 z"
   id="path11" /><path
   style="fill:#d07300;fill-opacity:1;stroke:#000000;stroke-width:4.31034"
   d="m 556.9315,555.26218 -34.4478,-34.51697 3.54217,-3.76341 c 12.73643,-13.53193 22.8473,-36.68384 24.40883,-55.8914 l 0.71473,-8.79155 48.73464,-0.29996 48.73465,-0.29997 -0.67452,12.94364 c -1.30317,25.0068 -7.78241,48.41918 -20.44122,73.86319 -8.4236,16.9313 -18.48302,31.93801 -29.51287,44.0275 l -6.6108,7.2459 z"
   id="path12" /><path
   style="fill:#d07300;fill-opacity:1;stroke:#000000;stroke-width:4.31034"
   d="m 452.87356,600.29881 c 0,-53.71337 -0.6383,-49.7241 7.95612,-49.7241 12.72593,0 39.59806,-11.02258 52.90195,-21.69966 l 6.93771,-5.56788 33.63085,33.79929 c 18.49696,18.5896 33.79089,34.25665 33.9865,34.81566 0.48724,1.39245 -19.10722,17.56665 -29.666,24.48773 -27.11387,17.77262 -62.39924,29.73961 -92.81609,31.47845 l -12.93104,0.73923 z"
   id="path13" /><path
   style="fill:#d07300;fill-opacity:1;stroke:#000000;stroke-width:4.31034"
   d="m 436.2069,648.19353 c -42.17008,-2.73546 -83.325,-19.78701 -116.51725,-48.2761 l -9.62069,-8.2575 34.52108,-34.52108 34.52108,-34.52108 5.55938,4.89519 c 14.35474,12.63974 39.21664,22.64433 58.00983,23.34353 l 7.87343,0.29294 0.0105,49.13793 c 0.006,27.02586 -0.11884,49.06209 -0.27688,48.96941 -0.15805,-0.0927 -6.49426,-0.57115 -14.08046,-1.06324 z"
   id="path14" /><path
   style="fill:#d07300;fill-opacity:1;stroke:#000000;stroke-width:4.31034"
   d="M 298.09308,577.87356 C 270.50534,544.748 254.14875,504.48459 252.09929,464.65517 l -0.72452,-14.08046 h 48.32757 c 54.21239,0 49.70885,-0.81506 49.73994,9.00206 0.0498,15.71849 10.88132,41.82945 23.17964,55.87774 l 4.23113,4.83318 -34.12325,34.10903 c -18.76779,18.75997 -34.49646,34.10903 -34.95262,34.10903 -0.45615,0 -4.814,-4.78449 -9.6841,-10.63219 z"
   id="path15" /><path
   style="fill:#d07300;fill-opacity:1;stroke:#000000;stroke-width:4.31034"
   d="m 298.96776,448.56344 -47.58397,-0.31336 0.67327,-12.91814 c 2.13359,-40.9377 21.53608,-86.71845 49.95283,-117.86519 l 6.6108,-7.2459 34.37854,34.44767 34.37854,34.44767 -4.66347,5.29798 c -11.89834,13.51723 -23.25546,40.38749 -23.30471,55.13751 -0.0178,5.34734 -1.05141,10.00562 -2.12986,9.59935 -0.4004,-0.15083 -22.14079,-0.41525 -48.31197,-0.58759 z"
   id="path16" /><path
   style="fill:#d07300;fill-opacity:1;stroke:#000000;stroke-width:4.31034"
   d="m 344.82028,341.87275 -33.90074,-33.98933 6.89655,-6.2636 c 11.90872,-10.81577 27.01179,-20.89155 43.67816,-29.13921 24.93302,-12.33858 48.18476,-18.94906 71.26437,-20.26051 5.68966,-0.3233 12.02586,-0.79325 14.08046,-1.04434 l 3.73563,-0.45652 v 48.59406 48.59405 l -10.76282,1.32268 c -19.41108,2.38548 -39.07805,10.28567 -52.47022,21.07721 -3.79141,3.05515 -7.28209,5.55483 -7.75706,5.55483 -0.47498,0 -16.11892,-15.2952 -34.76433,-33.98932 z"
   id="path17" /><path
   style="fill:#d07300;fill-opacity:1;stroke:#000000;stroke-width:4.31034"
   d="m 513.40251,370.87769 c -13.06567,-10.41172 -34.29301,-19.51095 -48.89031,-20.95712 -3.55642,-0.35234 -7.63002,-0.87639 -9.05243,-1.16456 l -2.58621,-0.52395 v -48.42979 -48.4298 l 12.93104,0.75149 c 39.3292,2.28563 79.3306,18.70392 112.13726,46.02596 5.88527,4.90137 10.54044,9.32691 10.34483,9.83455 -0.19561,0.50763 -15.41062,16.23208 -33.81115,34.94321 l -33.45548,34.02024 z"
   id="path18" /><path
   style="fill:#d0ba00;fill-opacity:1;stroke:#000000;stroke-width:4.31034"
   d="m 584.2567,300.12203 c -15.80504,-14.68339 -40.61021,-29.82312 -63.0814,-38.5015 -17.93506,-6.92653 -42.49815,-12.17222 -57.17801,-12.21094 -3.27322,-0.009 -7.11511,-0.32758 -8.53752,-0.70877 l -2.58621,-0.69308 v -48.31841 -48.31842 l 15.8046,0.71339 c 53.85608,2.43099 108.85636,21.95121 155.10333,55.04791 12.51181,8.9541 35.98862,28.88789 35.98862,30.55739 0,0.45678 -15.38793,16.1798 -34.1954,34.94003 l -34.1954,34.10952 z"
   id="path19" /><path
   style="fill:#d0ba00;fill-opacity:1;stroke:#000000;stroke-width:4.31034"
   d="m 651.26273,445.68966 c -0.31107,-2.0546 -0.84833,-8.5514 -1.19391,-14.43733 -1.94796,-33.17746 -16.89078,-72.46558 -38.41787,-101.00946 -5.63136,-7.46691 -12.05879,-15.43926 -14.28318,-17.71632 l -4.04434,-4.14012 34.3192,-34.3049 34.3192,-34.3049 2.48846,2.23812 c 4.24268,3.81587 19.89072,22.44492 27.44419,32.67243 32.82127,44.44047 53.85827,103.66588 56.04526,157.78408 l 0.68513,16.95403 h -48.39828 -48.39828 z"
   id="path20" /><path
   style="fill:#d0ba00;fill-opacity:1;stroke:#000000;stroke-width:4.31034"
   d="m 627.86626,626.14224 c -18.48736,-18.49533 -33.61339,-33.98785 -33.61339,-34.42781 0,-0.43997 3.14351,-4.31605 6.98558,-8.61351 27.7235,-31.00953 49.12542,-82.77233 49.32919,-119.30782 0.0212,-3.7931 0.35035,-8.06034 0.73154,-9.48276 l 0.69308,-2.5862 h 48.1418 48.1418 v 9.81542 c 0,27.01226 -8.00837,66.73485 -19.22468,95.35699 -13.42227,34.2514 -32.81079,65.88511 -56.73707,92.57044 -5.08082,5.66672 -9.59709,10.30312 -10.03616,10.30312 -0.43907,0 -15.92433,-15.13254 -34.41169,-33.62787 z"
   id="path21" /><path
   style="fill:#d0ba00;fill-opacity:1;stroke:#000000;stroke-width:4.31034"
   d="m 452.87356,700.31067 v -48.31841 l 2.58621,-0.69308 c 1.42241,-0.38119 5.50895,-0.70014 9.08118,-0.70877 3.57224,-0.009 12.48415,-1.0396 19.80425,-2.29103 36.2341,-6.19453 74.55543,-24.84193 100.59543,-48.95039 l 6.58412,-6.09573 34.41004,34.49135 34.41004,34.49136 -7.47127,6.94837 c -50.14496,46.6355 -118.45925,75.84086 -184.1954,78.74622 l -15.8046,0.69853 z"
   id="path22" /><path
   style="fill:#d0ba00;fill-opacity:1;stroke:#000000;stroke-width:4.31034"
   d="m 431.9413,748.18137 c -46.70381,-2.67659 -93.17135,-16.92624 -133.99569,-41.09089 -16.15604,-9.56304 -37.09475,-25.08225 -49.66975,-36.81389 l -8.62069,-8.04252 34.10998,-34.19011 34.10997,-34.19012 11.29372,9.2343 c 27.80096,22.73144 57.9548,37.5082 89.74032,43.97686 12.39498,2.52249 37.55789,5.15812 40.06407,4.19641 1.35371,-0.51947 1.60148,7.0265 1.60148,48.77466 0,38.83595 -0.307,49.35282 -1.43678,49.21885 -0.79023,-0.0937 -8.52871,-0.57679 -17.19663,-1.07355 z"
   id="path23" /><path
   style="fill:#d0ba00;fill-opacity:1;stroke:#000000;stroke-width:4.31034"
   d="M 232.6029,654.88506 C 183.09568,602.95729 154.1328,533.23589 151.43107,459.48276 l -0.32632,-8.90805 h 48.53347 48.53347 l 0.56743,3.73563 c 0.31209,2.0546 0.81366,8.39081 1.1146,14.08046 0.66585,12.58841 4.28594,30.91778 8.85357,44.82759 7.53855,22.9572 24.46073,52.16966 40.82333,70.47259 l 6.48516,7.25419 -2.67912,3.09063 c -4.52267,5.21735 -64.77405,65.73431 -65.44582,65.73431 -0.34683,0 -2.7264,-2.19827 -5.28794,-4.88505 z"
   id="path24" /><path
   style="fill:#d0ba00;fill-opacity:1;stroke:#000000;stroke-width:4.31034"
   d="m 151.87137,433.04676 c 2.75698,-58.16347 23.33164,-114.40177 59.39799,-162.3571 5.70545,-7.58621 14.0005,-17.67242 18.43344,-22.4138 l 8.0599,-8.62069 33.99221,33.90074 c 18.69572,18.64541 33.99222,34.26724 33.99222,34.71517 0,0.44794 -3.14551,4.33054 -6.99003,8.628 -9.7064,10.84998 -22.82597,30.82092 -29.67357,45.16989 -11.23158,23.53542 -19.6321,55.11746 -19.67394,73.96479 -0.009,3.88833 -0.32758,8.23348 -0.70877,9.6559 l -0.69308,2.5862 -48.42915,7.8e-4 -48.42916,8e-4 z"
   id="path25" /><path
   style="fill:#d0ba00;fill-opacity:1;stroke:#000000;stroke-width:4.31034"
   d="m 273.6043,271.88017 -33.85236,-33.86694 2.82518,-3.04777 c 4.86148,-5.24453 21.88572,-19.34084 33.62563,-27.84251 43.98437,-31.8521 100.83693,-52.35828 152.11323,-54.8658 6.86874,-0.3359 14.68689,-0.84196 17.37368,-1.12459 l 4.88505,-0.51387 v 48.7254 48.72541 l -10.05747,0.75062 c -17.1765,1.28194 -28.01714,2.91211 -39.81691,5.98751 -30.30235,7.89777 -61.86464,24.46437 -83.80125,43.98608 -4.29746,3.82438 -8.18006,6.95342 -8.628,6.95342 -0.44793,0 -16.04799,-15.24013 -34.66678,-33.86696 z"
   id="path26" /><path
   style="fill:#93cf00;fill-opacity:1;stroke:#000000;stroke-width:4.31034"
   d="m 657.47126,231.33755 c -8.41103,-8.33514 -29.84557,-25.19993 -43.10344,-33.91399 -22.96348,-15.09328 -53.98697,-29.37047 -80.58471,-37.08552 -20.72191,-6.01069 -50.78606,-10.91275 -66.92746,-10.91275 -3.739,0 -8.41456,-0.32328 -10.39013,-0.71839 l -3.59196,-0.71839 V 99.856322 51.724138 h 11.37247 c 30.06966,0 74.22053,7.670224 109.15134,18.962603 54.77506,17.707591 110.8501,51.155419 151.04245,90.094279 l 6.62372,6.41715 -34.20275,34.21701 c -18.8115,18.81935 -34.46459,34.14772 -34.78464,34.06304 -0.32005,-0.0847 -2.39224,-1.94799 -4.60489,-4.14067 z"
   id="path27" /><path
   style="fill:#93cf00;fill-opacity:1;stroke:#000000;stroke-width:4.31034"
   d="m 751.2931,445.83333 c -0.39511,-1.97557 -0.72263,-7.2773 -0.72782,-11.78161 -0.0131,-11.42533 -1.8014,-26.34686 -5.21903,-43.54879 -10.77695,-54.2435 -37.01394,-105.60391 -74.00964,-144.87808 l -7.39903,-7.85471 34.72417,-34.28645 34.72418,-34.28646 9.70133,10.51633 c 52.7601,57.19241 88.35357,130.18105 100.42767,205.93883 3.28377,20.60378 4.76093,36.50522 4.76093,51.251 v 12.5219 h -48.13218 -48.13219 z"
   id="path28" /><path
   style="fill:#93cf00;fill-opacity:1;stroke:#000000;stroke-width:4.31034"
   d="m 698.35556,696.69733 -34.40306,-34.48328 7.45501,-7.90272 c 46.34885,-49.13222 76.16108,-118.94029 78.78562,-184.48374 l 0.72491,-18.10345 h 48.85412 48.85413 l -0.70638,19.25287 c -1.86685,50.8832 -15.17134,102.9664 -38.76993,151.77305 -17.91447,37.05074 -41.26929,71.3412 -67.34239,98.87473 l -9.04897,9.55584 z"
   id="path29" /><path
   style="fill:#93cf00;fill-opacity:1;stroke:#000000;stroke-width:4.31034"
   d="M 452.87356,800.24679 V 751.865 l 4.88506,-0.59368 c 2.68678,-0.32652 10.49592,-0.89504 17.35364,-1.26338 61.5589,-3.30646 127.74213,-32.08784 178.22261,-77.5044 4.99511,-4.49403 9.13833,-8.03372 9.20715,-7.86598 0.0688,0.16773 15.34858,15.69016 33.95498,34.49428 l 33.82982,34.18932 -3.3818,3.57438 c -6.16292,6.51388 -27.14159,24.18452 -40.06871,33.75046 -62.54656,46.28385 -140.99372,74.43495 -215.32459,77.27016 l -18.67816,0.71244 z"
   id="path30" /><path
   style="fill:#93cf00;fill-opacity:1;stroke:#000000;stroke-width:4.31034"
   d="M 429.88506,848.21118 C 346.38897,844.18533 265.72769,813.43206 200,760.5642 193.36207,755.225 183.63091,746.78452 178.3752,741.80759 l -9.55583,-9.04897 34.36636,-34.28618 34.36636,-34.28618 7.94809,7.28858 c 35.75652,32.78956 80.68357,57.48389 127.02838,69.82166 18.29727,4.87105 37.08868,7.88527 59.15952,9.48944 l 18.88663,1.37274 v 48.6333 c 0,38.23505 -0.30719,48.59534 -1.43678,48.45577 -0.79023,-0.0977 -9.45402,-0.56411 -19.25287,-1.03657 z"
   id="path31" /><path
   style="fill:#93cf00;fill-opacity:1;stroke:#000000;stroke-width:4.31034"
   d="M 156.46083,719.8291 C 118.70405,678.65714 87.485763,625.36194 70.686741,573.39737 59.211069,537.89957 51.724138,494.34995 51.724138,463.0966 V 450.57471 H 100 148.27586 v 2.6438 c 0,1.45409 0.55305,9.60064 1.229,18.10345 4.73514,59.56378 24.4437,112.61183 59.20403,159.35501 5.33767,7.17772 13.57702,17.10335 18.30966,22.05695 l 8.60481,9.00654 -33.95421,33.78494 c -18.67482,18.58173 -34.38991,33.93776 -34.92244,34.12454 -0.53253,0.18678 -5.16117,-4.2326 -10.28588,-9.82084 z"
   id="path32" /><path
   style="fill:#93cf00;fill-opacity:1;stroke:#000000;stroke-width:4.31034"
   d="M 52.091882,429.02299 C 53.181937,399.80037 58.21058,369.12672 66.793739,339.3448 83.830199,280.23157 116.86747,222.05084 158.19852,178.3752 l 9.04286,-9.55583 34.31053,34.39071 34.31052,34.39072 -6.78382,7.34902 c -40.01793,43.35211 -67.98044,100.52332 -76.68401,156.78559 -1.4204,9.18185 -4.05986,38.1572 -4.10865,45.10367 -0.008,1.12654 -10.47197,1.43678 -48.46116,1.43678 H 51.373717 Z"
   id="path33" /><path
   style="fill:#93cf00;fill-opacity:1;stroke:#000000;stroke-width:4.31034"
   d="m 203.8772,200.92746 -34.33697,-34.42739 9.1954,-8.6622 c 38.76875,-36.52072 90.14336,-67.346032 141.95403,-85.173929 33.17566,-11.415647 72.87955,-19.172675 104.5977,-20.435462 7.9023,-0.314612 16.82471,-0.791045 19.82758,-1.058739 l 5.45977,-0.486717 v 48.79642 48.796417 l -2.5862,0.003 c -7.18777,0.008 -35.06702,2.49697 -45.68966,4.07943 -49.08325,7.31193 -100.46102,30.24682 -141.37931,63.11129 -7.27011,5.83916 -15.35296,12.70215 -17.96188,15.25107 l -4.74349,4.63442 z"
   id="path34" /><path
   style="fill:#b41f1b;fill-opacity:1;stroke:#000000;stroke-width:0;stroke-dasharray:none"
   d="M 428.36206,644.76316 C 390.411,640.35247 352.46185,623.73997 322.01167,598.20752 l -8.14337,-6.82821 32.39872,-32.44387 c 27.99778,-28.03679 32.65417,-32.25242 34.27929,-31.03448 1.03431,0.77516 4.41211,3.3232 7.50621,5.66232 12.74248,9.63319 32.04016,17.14611 49.9368,19.44127 l 10.28654,1.31919 -0.0127,41.51629 c -0.007,22.83396 -0.33326,43.45595 -0.72511,45.82664 -0.70819,4.28459 -0.74416,4.30944 -6.02182,4.15927 -2.92017,-0.0831 -8.83956,-0.56133 -13.15422,-1.06278 z"
   id="path35" /><path
   style="fill:#b41f1b;fill-opacity:1;stroke:#000000;stroke-width:0;stroke-dasharray:none"
   d="m 513.76217,367.65511 c -13.14207,-9.94117 -35.19286,-18.69416 -53.12999,-21.08977 l -5.45977,-0.72919 v -45.97618 -45.97618 l 8.33334,0.71587 c 29.39474,2.52513 49.20311,8.02036 74.24439,20.59684 12.56581,6.31093 31.98437,19.2443 40.41078,26.91484 l 6.32184,5.75476 -9.18699,9.5727 c -17.39528,18.1256 -54.01093,54.97499 -54.62627,54.97499 -0.33903,0 -3.44733,-2.14141 -6.90733,-4.75868 z"
   id="path36" /><path
   style="fill:#b41f1b;fill-opacity:1;stroke:#000000;stroke-width:0;stroke-dasharray:none"
   d="m 254.59966,437.64368 c 3.01283,-35.07203 11.86586,-62.52355 29.47082,-91.38331 5.30849,-8.7022 17.5247,-24.67218 22.16275,-28.9729 l 3.04926,-2.82748 32.2126,32.2126 32.21261,32.21261 -4.49513,5.43971 c -9.28423,11.23521 -20.13739,35.55595 -21.54751,48.28558 -0.35917,3.2424 -0.90936,7.57629 -1.22263,9.63089 l -0.56959,3.73563 h -45.99452 -45.99453 z"
   id="path37" /><path
   style="fill:#b41f1b;fill-opacity:1;stroke:#000000;stroke-width:0;stroke-dasharray:none"
   d="m 558.12261,552.95024 -32.09187,-32.10724 4.08185,-4.51811 c 9.81294,-10.86176 20.6092,-34.97142 22.18561,-49.54381 1.3696,-12.66072 -4.67279,-11.1288 47.29822,-11.99147 25.09299,-0.41652 45.80124,-0.57969 46.01832,-0.36261 0.21709,0.21709 -0.15495,6.72473 -0.82673,14.46143 -2.73864,31.53995 -15.05765,64.79577 -34.517,93.18054 -6.65824,9.71217 -17.79208,22.9885 -19.27869,22.9885 -0.42781,0 -15.21917,-14.44825 -32.86971,-32.10723 z"
   id="path38" /><path
   style="fill:#a88400;fill-opacity:1;stroke:#000000;stroke-width:0;stroke-dasharray:none"
   d="M 422.41379,744.72833 C 357.59022,738.08136 297.38477,711.3081 250.43795,668.25098 l -6.4586,-5.92348 32.32067,-32.22084 32.32067,-32.22084 7.47126,6.26755 c 12.07782,10.13194 31.78047,22.82998 45.97702,29.63144 23.01173,11.02476 43.20777,16.51771 70.91714,19.28818 l 13.82198,1.38196 0.72794,10.99091 c 0.94875,14.32498 0.94338,52.70878 -0.01,68.28338 l -0.74938,12.24777 -7.58395,-0.1529 c -4.17116,-0.0841 -11.72188,-0.57718 -16.77935,-1.09578 z"
   id="path39" /><path
   style="fill:#a88400;fill-opacity:1;stroke:#000000;stroke-width:0;stroke-dasharray:none"
   d="m 583.33333,295.80439 c -25.84755,-23.92526 -73.56868,-45.16452 -108.04597,-48.08804 -4.42529,-0.37525 -10.7615,-0.95732 -14.08046,-1.29351 l -6.03449,-0.61125 v -45.96365 -45.96366 l 11.2069,0.7219 c 6.16379,0.39704 17.15517,1.49448 24.42529,2.43875 57.79411,7.50656 113.28918,33.70506 159.60609,75.34793 l 5.77649,5.19357 -32.13943,32.06886 c -17.6767,17.63786 -32.51709,32.17323 -32.97866,32.3008 -0.46156,0.12758 -3.94265,-2.64069 -7.73576,-6.1517 z"
   id="path40" /><path
   style="fill:#a88400;fill-opacity:1;stroke:#000000;stroke-width:0;stroke-dasharray:none"
   d="m 154.50785,434.1954 c 2.99722,-45.21393 12.83606,-81.36163 32.44556,-119.20443 12.01458,-23.18595 33.77828,-54.15023 46.86697,-66.6799 l 4.16569,-3.98779 32.05373,32.0384 32.05373,32.03839 -7.57899,9.30571 c -16.7946,20.62089 -29.5967,43.65274 -37.6266,67.69279 -5.0344,15.07209 -9.73545,37.04196 -9.76504,45.63591 -0.012,3.47701 -0.34237,8.2615 -0.73422,10.63219 l -0.71246,4.31034 h -45.97468 -45.97469 z"
   id="path41" /><path
   style="fill:#a88400;fill-opacity:1;stroke:#000000;stroke-width:0;stroke-dasharray:none"
   d="m 629.67188,623.65 -31.82238,-32.11167 7.24669,-8.7002 c 10.50775,-12.61536 19.34607,-26.32703 27.09414,-42.03353 11.54988,-23.41338 20.66381,-54.94085 20.69588,-71.59248 0.007,-3.61264 0.33326,-8.5081 0.72511,-10.87879 l 0.71246,-4.31034 h 45.97449 45.9745 l -0.77026,12.93103 c -2.41056,40.46809 -13.89161,82.22927 -32.45592,118.05501 -12.41546,23.95958 -34.45103,55.15277 -47.13417,66.72238 l -4.41817,4.03027 z"
   id="path42" /><path
   style="fill:#a88400;fill-opacity:1;stroke:#000000;stroke-width:0;stroke-dasharray:none"
   d="m 423.56322,845.19417 c -13.00394,-0.83373 -36.6615,-4.14503 -52.50033,-7.34835 -70.89807,-14.33877 -138.28211,-49.11423 -191.34092,-98.74695 l -7.05964,-6.60379 32.34699,-32.27243 32.347,-32.27242 9.1954,8.1122 c 52.06436,45.93127 112.88594,71.74617 181.14552,76.8848 9.73778,0.73307 18.35161,1.51739 19.14184,1.74294 1.10825,0.31633 1.43543,8.23726 1.43084,34.64158 -0.003,18.82731 -0.33991,39.27457 -0.74808,45.43836 l -0.74213,11.2069 -8.73468,-0.20718 c -4.80408,-0.11394 -11.32089,-0.37299 -14.48181,-0.57566 z"
   id="path43" /><path
   style="fill:#6a9500;fill-opacity:1;stroke:#000000;stroke-width:0;stroke-dasharray:none"
   d="m 428.73563,844.66701 c -41.522,-1.91421 -90.3907,-13.0831 -129.97453,-29.70556 -44.44779,-18.66499 -81.08375,-42.27964 -119.79965,-77.21996 l -5.52131,-4.98287 32.07841,-32.00925 32.0784,-32.00925 9.07509,7.91666 c 35.43983,30.91598 75.28879,53.14249 116.89152,65.1985 21.40313,6.20238 35.3992,8.52497 77.36023,12.83761 l 5.86634,0.60292 0.67712,15.7429 c 0.69393,16.13326 -0.45693,73.27845 -1.49024,73.997 -0.31609,0.21981 -8.07471,0.0539 -17.24138,-0.3687 z"
   id="path44" /><path
   style="fill:#6a9500;fill-opacity:1;stroke:#000000;stroke-width:0;stroke-dasharray:none"
   d="m 700.05571,694.88332 -32.42082,-32.43579 7.2866,-7.94791 c 45.44661,-49.57116 74.80047,-118.11602 77.48475,-180.9364 0.33767,-7.9023 0.84942,-15.53161 1.13724,-16.95402 l 0.52331,-2.58621 h 46.03814 46.03815 l -0.73209,13.50575 c -1.58278,29.19901 -4.23144,48.64056 -9.90456,72.70115 -15.55497,65.9709 -50.23525,130.89324 -95.86635,179.46414 l -7.16356,7.62508 z"
   id="path45" /><path
   style="fill:#6a9500;fill-opacity:1;stroke:#000000;stroke-width:0;stroke-dasharray:none"
   d="m 656.89655,226.91932 c -36.20585,-31.68054 -69.0858,-51.05304 -111.0396,-65.42333 -22.15424,-7.58841 -56.29015,-14.29841 -72.99537,-14.3485 -3.86292,-0.0116 -9.42326,-0.34998 -12.35633,-0.752 l -5.33284,-0.73095 V 99.71556 53.766577 l 15.22989,0.79499 c 76.04753,3.969633 148.91579,29.81212 212.35632,75.311473 17.44536,12.51176 43.67816,35.29881 43.67816,37.94091 0,0.97884 -62.70085,62.45056 -64.14456,62.88712 -0.43889,0.13271 -2.86693,-1.56908 -5.39567,-3.78175 z"
   id="path46" /><path
   style="fill:#6a9500;fill-opacity:1;stroke:#000000;stroke-width:0;stroke-dasharray:none"
   d="m 54.589017,432.47126 c 1.589164,-29.31686 4.809858,-52.13949 10.828077,-76.73044 15.71446,-64.2106 50.221646,-128.05937 94.681036,-175.18868 l 7.42535,-7.87125 32.26314,32.33772 32.26315,32.33771 -8.14339,9.1954 c -27.74687,31.33141 -49.62827,69.3699 -62.99562,109.51128 -7.25616,21.78982 -10.99272,40.42993 -13.44124,67.05271 l -1.9674,21.39159 -12.01033,0.73485 c -6.60568,0.40417 -27.22585,0.73486 -45.822599,0.73486 H 53.856917 Z"
   id="path47" /></svg>
