<?xml version="1.0" encoding="UTF-8" standalone="no"?>
<svg
   width="900"
   height="900"
   viewBox="0 0 900 900"
   version="1.1"
   xml:space="preserve"
   id="SVGRoot"
   xmlns="http://www.w3.org/2000/svg"
   xmlns:svg="http://www.w3.org/2000/svg"><defs
   id="defs126" />

<style
   type="text/css"
   id="style1">
g.prefab path {
  vector-effect:non-scaling-stroke;
  -inkscape-stroke:hairline;
  fill: none;
  fill-opacity: 1;
  stroke-opacity: 1;
  stroke: #00349c;
}
</style>

<path
   style="opacity:1;fill:#f19f69;stroke:#000000;stroke-width:3.75781"
   d="m 416.35058,333.87484 -9.51148,-16.63346 9.51148,-16.63346 9.51149,-16.63346 19.54023,0.01 19.54023,0.01 9.50603,16.63293 9.50604,16.63293 -9.50604,16.62401 -9.50603,16.62402 H 445.4023 425.86207 Z"
   id="path131" /><path
   style="opacity:1;fill:#f19f69;stroke:#000000;stroke-width:3.75781"
   d="m 425.60047,488.24544 c -0.63949,-0.80511 -5.11176,-8.36847 -9.93839,-16.80748 l -8.77569,-15.34364 9.48784,-16.53243 9.48784,-16.53243 h 19.54023 19.54023 l 9.49777,16.54965 9.49778,16.54966 -9.55412,16.47584 -9.55412,16.47585 -19.03334,0.31441 c -14.34863,0.23702 -19.31951,-0.0459 -20.19603,-1.14943 z"
   id="path132" /><path
   style="opacity:1;fill:#f19f69;stroke:#000000;stroke-width:3.75781"
   d="m 422.71039,206.06195 c -2.1278,-3.65017 -6.57158,-11.33611 -9.87509,-17.07988 l -6.00637,-10.44322 9.65638,-16.56827 9.65638,-16.56828 19.02988,-0.31477 19.02987,-0.31477 6.25306,10.65959 c 3.43918,5.86278 7.84731,13.50443 9.79584,16.98144 l 3.54279,6.32184 -9.57012,16.66667 -9.57012,16.66666 -19.03689,0.31483 -19.0369,0.31483 z"
   id="path133" /><path
   style="opacity:1;fill:#f19f69;stroke:#000000;stroke-width:3.75781"
   d="m 296.80146,265.17172 c -5.19483,-9.04061 -9.44514,-16.83506 -9.44514,-17.321 0,-0.48594 4.18382,-8.10109 9.29739,-16.92257 l 9.29738,-16.03903 19.60253,0.31406 19.60253,0.31406 9.01559,15.51724 c 4.95857,8.53448 9.02258,16.10469 9.03112,16.82267 0.009,0.71799 -4.19706,8.60592 -9.34577,17.52874 l -9.3613,16.2233 h -19.1246 -19.1246 z"
   id="path134" /><path
   style="opacity:1;fill:#f19f69;stroke:#000000;stroke-width:3.75781"
   d="m 296.83908,404.18143 c -5.21552,-9.06006 -9.48276,-16.86587 -9.48276,-17.34625 0,-0.48038 4.26724,-8.30905 9.48276,-17.39704 l 9.48276,-16.52362 18.9821,-0.0205 18.9821,-0.0205 9.81321,16.9677 9.81322,16.96769 -9.79335,16.94035 -9.79336,16.94035 -19.00196,-0.0177 -19.00196,-0.0177 z"
   id="path135" /><path
   style="opacity:1;fill:#f19f69;stroke:#000000;stroke-width:3.75781"
   d="m 536.55379,264.77507 -9.71276,-16.83412 9.35111,-16.21186 9.35111,-16.21185 19.62434,-0.31393 19.62435,-0.31393 9.32817,16.0556 c 5.13049,8.83058 9.32816,16.40596 9.32816,16.83417 0,0.42822 -4.24478,8.21516 -9.43284,17.30431 l -9.43285,16.52573 h -19.15802 -19.15801 z"
   id="path136" /><path
   style="opacity:1;fill:#f19f69;stroke:#000000;stroke-width:3.75781"
   d="m 536.63004,403.78635 -9.82083,-16.90331 9.83697,-17.00474 9.83697,-17.00474 18.9998,0.004 18.99981,0.004 8.62069,15.09971 c 4.74138,8.30484 9.06706,16.01549 9.61262,17.13478 0.74678,1.5321 -1.38383,6.17455 -8.62069,18.78386 l -9.61262,16.74879 -19.01594,0.0205 -19.01594,0.0205 z"
   id="path137" /><path
   style="opacity:1;fill:#000080;stroke:#000000;stroke-width:3.75781"
   d="m 477.12744,439.07177 c -5.12443,-8.85535 -9.44515,-16.54682 -9.6016,-17.09214 -0.15646,-0.54533 3.85347,-8.28279 8.91094,-17.19437 l 9.1954,-16.20286 19.61916,-0.0383 19.61915,-0.0383 9.11648,15.80459 c 5.01406,8.69253 9.11648,16.40901 9.11648,17.14774 0,0.73873 -4.13793,8.60941 -9.19541,17.49041 l -9.1954,16.14727 -19.13403,0.0383 -19.13403,0.0383 z"
   id="path138" /><path
   style="opacity:1;fill:#000080;stroke:#000000;stroke-width:3.75781"
   d="m 420.95431,411.23441 c -3.08215,-5.23065 -7.49009,-12.89355 -9.79541,-17.02866 l -4.1915,-7.51838 9.60821,-16.61955 9.6082,-16.61955 h 19.21849 19.21848 l 9.59933,16.60419 9.59933,16.60419 -3.63655,6.38432 c -2.0001,3.51137 -6.31942,11.03949 -9.59848,16.72914 l -5.96194,10.34483 -19.03212,0.31487 -19.03213,0.31488 z"
   id="path139" /><path
   style="opacity:1;fill:#000080;stroke:#000000;stroke-width:3.75781"
   d="m 356.46155,438.26623 c -7.24167,-12.6628 -9.35879,-17.28753 -8.53536,-18.64495 0.60228,-0.99286 4.87779,-8.40002 9.50114,-16.46036 l 8.4061,-14.65517 19.66949,0.0371 19.66949,0.0371 9.1954,16.25985 c 5.05748,8.94291 9.04395,16.75129 8.85884,17.35194 -0.18511,0.60065 -4.50515,8.26704 -9.60008,17.03641 l -9.26352,15.94433 -19.13555,-0.0332 -19.13555,-0.0332 z"
   id="path140" /><path
   style="opacity:1;fill:#000080;stroke:#000000;stroke-width:3.75781"
   d="M 365.10947,383.62069 C 354.78808,367.04303 347.08,352.21357 347.90695,350.52501 c 0.51899,-1.05973 4.82293,-8.72166 9.56431,-17.0265 l 8.62069,-15.0997 19.13555,-0.004 19.13555,-0.004 9.5043,16.35876 c 5.22736,8.99732 9.48807,16.88525 9.46824,17.52874 -0.0198,0.64348 -4.30837,8.54066 -9.5301,17.54928 l -9.49404,16.37932 h -18.7959 c -18.24866,0 -18.84277,-0.0753 -20.40608,-2.58621 z"
   id="path141" /><path
   style="opacity:1;fill:#000080;stroke:#000000;stroke-width:3.75781"
   d="m 296.64296,334.3615 c -5.10765,-8.91726 -9.28664,-16.61677 -9.28664,-17.11003 0,-0.49325 4.21259,-8.1973 9.3613,-17.12012 l 9.3613,-16.22331 h 19.28783 19.28783 l 9.2819,16.01234 c 5.10505,8.80678 9.28191,16.60123 9.28191,17.321 0,0.71977 -4.17686,8.51422 -9.28191,17.321 l -9.2819,16.01233 h -19.36249 -19.36248 z"
   id="path142" /><path
   style="opacity:1;fill:#000080;stroke:#000000;stroke-width:3.75781"
   d="m 356.50794,299.37256 -9.58401,-16.71991 9.56133,-16.63969 9.56133,-16.63969 19.5065,0.31337 19.5065,0.31336 9.40448,16.21772 9.40448,16.21772 -9.49295,16.5409 -9.49295,16.5409 -19.39535,0.28761 -19.39535,0.28761 z"
   id="path143" /><path
   style="opacity:1;fill:#000080;stroke:#000000;stroke-width:3.75781"
   d="m 356.89655,230.87538 c -5.05747,-8.89731 -9.34536,-16.57187 -9.52863,-17.05457 -0.18328,-0.48271 3.98001,-8.31573 9.25175,-17.4067 l 9.58497,-16.52905 19.03779,-0.31443 19.03779,-0.31443 9.50966,16.40638 c 5.23032,9.02351 9.5206,16.92363 9.53397,17.55581 0.0134,0.63218 -4.24802,8.52011 -9.46976,17.52874 l -9.49407,16.37931 -19.13403,-0.0371 -19.13404,-0.0371 z"
   id="path144" /><path
   style="opacity:1;fill:#000080;stroke:#000000;stroke-width:3.75781"
   d="m 424.89766,279.05058 c -0.89555,-1.43759 -5.32665,-9.00689 -9.8469,-16.82066 l -8.21863,-14.20686 9.51497,-16.53521 9.51497,-16.53521 19.54023,0.0126 19.54023,0.0127 9.4808,16.46944 9.4808,16.46944 -9.55121,16.55884 -9.55121,16.55883 -19.13789,0.31495 c -18.82386,0.30978 -19.16461,0.27205 -20.76616,-2.29885 z"
   id="path145" /><path
   style="opacity:1;fill:#000080;stroke:#000000;stroke-width:3.75781"
   d="m 476.96623,230.77431 c -5.23039,-9.02357 -9.49644,-16.92374 -9.48012,-17.55592 0.0163,-0.63218 4.28328,-8.5324 9.48211,-17.55604 l 9.45244,-16.40662 19.06864,0.31466 19.06864,0.31467 9.63836,16.61668 9.63835,16.61668 -2.59855,4.64769 c -1.4292,2.55622 -5.74178,10.07872 -9.58351,16.71665 l -6.98495,12.06896 -19.0958,0.31454 -19.0958,0.31454 z"
   id="path146" /><path
   style="opacity:1;fill:#1e63ff;fill-opacity:1;stroke:#000000;stroke-width:3.75781"
   d="m 481.82139,308.33333 c -2.4678,-4.26724 -6.82955,-11.83479 -9.69278,-16.81679 l -5.20587,-9.05817 9.41113,-16.22918 L 485.745,250 l 19.5065,-0.31336 19.5065,-0.31337 9.56133,16.63969 9.56133,16.63969 -9.58401,16.69917 -9.58401,16.69917 -19.20217,0.0205 -19.20217,0.0205 z"
   id="path147" /><path
   style="opacity:1;fill:#1e63ff;fill-opacity:1;stroke:#000000;stroke-width:3.75781"
   d="m 477.01471,369.85466 c -5.23031,-9.02351 -9.52588,-16.94005 -9.54571,-17.59231 -0.0198,-0.65225 4.22701,-8.54019 9.43743,-17.52873 l 9.47347,-16.34282 19.16637,0.0338 19.16637,0.0338 8.62069,15.07226 c 4.74138,8.28974 9.04167,15.93009 9.55619,16.97855 0.67192,1.36916 -1.77886,6.5859 -8.69804,18.51467 l -9.63354,16.60838 -19.01678,0.31443 -19.01679,0.31443 z"
   id="path148" /><path
   style="opacity:1;fill:#4cf0ff;fill-opacity:1;stroke:#000000;stroke-width:3.75781"
   d="m 541.26218,342.24138 c -2.64892,-4.58334 -6.80967,-11.78565 -9.2461,-16.00514 -2.43643,-4.2195 -4.42987,-8.22646 -4.42987,-8.90437 0,-0.6779 4.1914,-8.47559 9.31424,-17.32819 l 9.31424,-16.09564 h 19.25549 19.2555 l 9.36129,16.22331 c 5.14872,8.92282 9.3613,16.62233 9.3613,17.11003 0,0.4877 -4.21258,8.18721 -9.3613,17.11003 l -9.36129,16.2233 h -19.32364 -19.32363 z"
   id="path149" /></svg>
